<svg width="17" height="18" viewBox="0 0 17 18" fill="none" xmlns="http://www.w3.org/2000/svg">
<g clip-path="url(#clip0)">
<path d="M8.50098 0.5C3.81482 0.5 0.000976562 4.31384 0.000976562 9C0.000976562 13.6862 3.81482 17.5 8.50098 17.5C13.1871 17.5 17.001 13.6862 17.001 9C17.001 4.31384 13.1871 0.5 8.50098 0.5ZM8.88642 5.44988C9.80945 5.42959 10.7122 5.33831 11.5642 5.17601C11.8381 6.21062 12.0105 7.38723 12.041 8.6247H8.88642V5.44988ZM8.88642 4.68914V1.31146C9.87031 1.55489 10.7528 2.74165 11.3411 4.43556C10.56 4.57757 9.7283 4.66885 8.88642 4.68914ZM8.11554 1.31146V4.679C7.27365 4.66885 6.44191 4.57757 5.67102 4.43556C6.24919 2.74165 7.13165 1.55489 8.11554 1.31146ZM8.11554 5.43974V8.61456H4.961C4.99143 7.36695 5.16387 6.19033 5.43773 5.15573C6.28976 5.32816 7.1925 5.41945 8.11554 5.43974ZM4.20026 8.61456H0.782003C0.863148 6.95107 1.47174 5.41945 2.44549 4.19212C3.1048 4.52685 3.85539 4.79057 4.67699 5.00358C4.40312 6.07876 4.23069 7.30609 4.20026 8.61456ZM4.20026 9.38544C4.23069 10.7041 4.40312 11.9517 4.68713 13.037C3.86554 13.2399 3.11494 13.5137 2.46577 13.8383C1.47174 12.6008 0.863148 11.0692 0.782003 9.38544H4.20026ZM4.961 9.38544H8.11554V12.5907C7.1925 12.611 6.28976 12.7023 5.44787 12.8646C5.16386 11.8198 4.99143 10.6331 4.961 9.38544ZM8.11554 13.3413V16.6784C7.13165 16.435 6.24919 15.2584 5.67102 13.5847C6.45205 13.4529 7.27365 13.3616 8.11554 13.3413ZM8.88642 16.6885V13.3514C9.7283 13.3717 10.56 13.4529 11.3309 13.5949C10.7426 15.2685 9.87031 16.4451 8.88642 16.6885ZM8.88642 12.5806V9.38544H12.041C12.0105 10.6432 11.8381 11.83 11.5541 12.8646C10.7021 12.7023 9.80945 12.611 8.88642 12.5806ZM12.8017 9.38544H16.22C16.1388 11.0692 15.5201 12.6008 14.5362 13.8383C13.887 13.5137 13.1364 13.2399 12.3148 13.037C12.5988 11.9415 12.7713 10.7041 12.8017 9.38544ZM12.8017 8.61456C12.7713 7.30609 12.609 6.07876 12.3148 4.99344C13.1364 4.79057 13.8972 4.51671 14.5463 4.18198C15.5201 5.40931 16.1287 6.94093 16.2098 8.60442H12.8017V8.61456ZM14.029 3.60382C13.461 3.87769 12.8017 4.10084 12.0917 4.27327C11.7164 3.14737 11.2092 2.2142 10.6006 1.56504C11.9294 1.94033 13.0958 2.65036 14.029 3.60382ZM6.39119 1.56504C5.79274 2.22434 5.28558 3.14737 4.90014 4.27327C4.19012 4.10084 3.54095 3.87769 2.96279 3.60382C3.90611 2.65036 5.07258 1.94033 6.39119 1.56504ZM2.99322 14.4266C3.56124 14.1527 4.2104 13.9296 4.91028 13.7572C5.28558 14.8729 5.79274 15.7858 6.39119 16.435C5.08272 16.0597 3.92639 15.3598 2.99322 14.4266ZM10.6108 16.435C11.2092 15.7858 11.7164 14.8729 12.0917 13.7572C12.7916 13.9296 13.4407 14.1527 14.0087 14.4165C13.0857 15.3598 11.9192 16.0597 10.6108 16.435Z" fill="white"/>
</g>
<defs>
<clipPath id="clip0">
<rect width="17" height="17" fill="white" transform="translate(0.000976562 0.5)"/>
</clipPath>
</defs>
</svg>
