<svg width="24" height="24" viewBox="0 0 24 24" fill="none" xmlns="http://www.w3.org/2000/svg">
<rect x="0.5" y="0.5" width="23" height="23" rx="11.5" stroke="white"/>
<g clip-path="url(#clip0_901_2325)">
<path d="M15.9168 15.0561L16.478 12.0001H13.2116V10.9193C13.2116 9.30455 13.8452 8.68335 15.4848 8.68335C15.994 8.68335 16.404 8.69575 16.64 8.72055V5.95055C16.1928 5.82615 15.0996 5.70215 14.466 5.70215C11.1244 5.70215 9.584 7.27975 9.584 10.6833V12.0001H7.522V15.0561H9.584V21.7057C10.3576 21.8977 11.1668 22.0001 11.9996 22.0001C12.4096 22.0001 12.814 21.9749 13.2112 21.9269V15.0561H15.9164H15.9168Z" fill="white"/>
</g>
<defs>
<clipPath id="clip0_901_2325">
<rect width="20" height="20" fill="white" transform="translate(2 2)"/>
</clipPath>
</defs>
</svg>
