<svg width="24" height="24" viewBox="0 0 24 24" fill="none" xmlns="http://www.w3.org/2000/svg">
<rect x="0.5" y="0.5" width="23" height="23" rx="11.5" stroke="white"/>
<g clip-path="url(#clip0_901_2322)">
<path d="M9.51505 6.04196C8.87665 6.07208 8.44068 6.17396 8.05956 6.32372C7.66512 6.47744 7.33079 6.68372 6.99815 7.01756C6.66551 7.3514 6.46066 7.68596 6.30802 8.081C6.1603 8.46296 6.06022 8.89928 6.03202 9.53804C6.00382 10.1768 5.99758 10.3821 6.0007 12.0115C6.00382 13.6408 6.01102 13.8451 6.04198 14.4852C6.07246 15.1234 6.17398 15.5593 6.32374 15.9405C6.4777 16.335 6.68375 16.6692 7.01771 17.0019C7.35167 17.3347 7.686 17.539 8.082 17.6919C8.4636 17.8394 8.90005 17.94 9.53869 17.9679C10.1773 17.9959 10.3829 18.0024 12.0118 17.9992C13.6407 17.9961 13.8458 17.9889 14.4857 17.9586C15.1257 17.9282 15.5593 17.826 15.9406 17.6769C16.3351 17.5226 16.6695 17.3169 17.002 16.9828C17.3346 16.6488 17.5393 16.314 17.6918 15.9187C17.8397 15.5371 17.9401 15.1006 17.9678 14.4625C17.9958 13.822 18.0024 13.6176 17.9993 11.9884C17.9961 10.3593 17.9888 10.1551 17.9585 9.51524C17.9281 8.8754 17.8265 8.44088 17.6768 8.0594C17.5226 7.66496 17.3168 7.331 16.983 6.998C16.6491 6.665 16.3141 6.4604 15.9189 6.30824C15.5371 6.16052 15.1009 6.05984 14.4622 6.03224C13.8236 6.00464 13.618 5.99756 11.9885 6.00068C10.359 6.0038 10.155 6.01076 9.51505 6.04196ZM9.58514 16.8885C9.00013 16.8631 8.68249 16.7659 8.4708 16.6845C8.19048 16.5765 7.9908 16.446 7.77984 16.237C7.56887 16.0281 7.43927 15.8277 7.32983 15.548C7.24763 15.3363 7.14863 15.019 7.12127 14.434C7.09151 13.8018 7.08527 13.6119 7.08179 12.01C7.07831 10.4082 7.08443 10.2186 7.11215 9.58604C7.13711 9.00152 7.23491 8.68352 7.31615 8.47196C7.42415 8.19128 7.55423 7.99196 7.76364 7.78112C7.97304 7.57028 8.17284 7.44044 8.4528 7.331C8.66425 7.24844 8.98153 7.15028 9.56629 7.12244C10.1991 7.09244 10.3887 7.08644 11.9903 7.08296C13.592 7.07948 13.7821 7.08548 14.4151 7.11332C14.9996 7.13876 15.3177 7.2356 15.529 7.31732C15.8095 7.42532 16.009 7.55504 16.2199 7.7648C16.4307 7.97456 16.5607 8.17364 16.6701 8.4542C16.7528 8.66504 16.851 8.9822 16.8786 9.56732C16.9087 10.2001 16.9155 10.3898 16.9184 11.9913C16.9213 13.5928 16.9156 13.783 16.8879 14.4153C16.8624 15.0003 16.7654 15.3181 16.6839 15.53C16.5759 15.8102 16.4457 16.01 16.2362 16.2207C16.0267 16.4314 15.8271 16.5613 15.547 16.6707C15.3358 16.7532 15.0182 16.8516 14.4339 16.8794C13.8011 16.9092 13.6115 16.9154 12.0093 16.9189C10.407 16.9224 10.218 16.9159 9.58525 16.8885M14.4765 8.7932C14.4772 9.19088 14.8 9.51272 15.1977 9.512C15.5954 9.51128 15.9172 9.18848 15.9165 8.7908C15.9158 8.39312 15.593 8.07128 15.1953 8.072C15.1953 8.072 15.1952 8.072 15.1951 8.072C14.7975 8.07284 14.4758 8.39564 14.4765 8.7932ZM8.91925 12.006C8.92261 13.7076 10.3045 15.0838 12.0058 15.0806C13.7071 15.0774 15.0843 13.6956 15.0811 11.994C15.0778 10.2924 13.6955 8.91572 11.994 8.91908C10.2925 8.92244 8.91601 10.3046 8.91925 12.006ZM9.99998 12.0038C9.99782 10.8992 10.8915 10.002 11.9961 9.9998C13.1007 9.99764 13.9979 10.8913 14.0001 11.9959C14.0023 13.1005 13.1086 13.9977 12.004 13.9999C10.8995 14.0022 10.0023 13.1088 9.99998 12.0043V12.0038Z" fill="white"/>
</g>
<defs>
<clipPath id="clip0_901_2322">
<rect width="12" height="12" fill="white" transform="translate(6 6)"/>
</clipPath>
</defs>
</svg>
