<svg width="24" height="24" viewBox="0 0 24 24" fill="none" xmlns="http://www.w3.org/2000/svg">
<rect x="0.5" y="0.5" width="23" height="23" rx="11.5" stroke="white"/>
<g clip-path="url(#clip0_901_2314)">
<path d="M12.0008 6C8.87011 6 6.33333 8.686 6.33333 12.0008C6.33333 14.5423 7.82656 16.7161 9.93537 17.5895C9.88575 17.1151 9.84079 16.3845 9.95553 15.8656C10.0579 15.3977 10.6207 12.8825 10.6207 12.8825C10.6207 12.8825 10.4517 12.5229 10.4517 11.991C10.4517 11.1569 10.9091 10.533 11.4767 10.533C11.9605 10.533 12.193 10.9172 12.193 11.3786C12.193 11.8941 11.8829 12.6625 11.7232 13.3767C11.5899 13.9743 12.0054 14.4603 12.5621 14.4603C13.57 14.4603 14.3437 13.3356 14.3437 11.7119C14.3437 10.2753 13.3684 9.27049 11.976 9.27049C10.3633 9.27049 9.41747 10.5511 9.41747 11.8744C9.41747 12.3899 9.60509 12.9432 9.83923 13.2437C9.88575 13.3028 9.89196 13.3553 9.878 13.4161C9.83458 13.6049 9.74 14.0137 9.71984 14.0958C9.69503 14.2058 9.63766 14.2288 9.53067 14.1762C8.82359 13.8282 8.38012 12.7314 8.38012 11.8514C8.38012 9.95841 9.67952 8.21973 12.1248 8.21973C14.091 8.21973 15.6183 9.70229 15.6183 11.6856C15.6183 13.6689 14.3871 15.4174 12.6784 15.4174C12.1047 15.4174 11.5651 15.1022 11.379 14.7279C11.379 14.7279 11.0952 15.8739 11.0254 16.1546C10.8967 16.6751 10.5525 17.3285 10.3215 17.7275C10.8518 17.9015 11.4146 17.9951 11.9992 17.9951C15.1283 17.9951 17.6667 15.3091 17.6667 11.9943C17.6667 8.67944 15.1299 6 12.0008 6Z" fill="white"/>
</g>
<defs>
<clipPath id="clip0_901_2314">
<rect width="11.3333" height="12" fill="white" transform="translate(6.33333 6)"/>
</clipPath>
</defs>
</svg>
