<svg width="24" height="24" viewBox="0 0 24 24" fill="none" xmlns="http://www.w3.org/2000/svg">
<rect x="0.5" y="0.5" width="23" height="23" rx="11.5" stroke="white"/>
<g clip-path="url(#clip0_901_2320)">
<path d="M15.9051 8.56637C15.8241 8.52451 15.7453 8.47862 15.6689 8.42888C15.4467 8.282 15.243 8.10893 15.0622 7.9134C14.6097 7.39568 14.4407 6.87046 14.3785 6.50272H14.381C14.329 6.19749 14.3505 6 14.3537 6H12.2928V13.9691C12.2928 14.0761 12.2928 14.1818 12.2883 14.2863C12.2883 14.2993 12.2871 14.3113 12.2863 14.3253C12.2863 14.3311 12.2863 14.3371 12.2851 14.3431C12.2851 14.3446 12.2851 14.3461 12.2851 14.3476C12.2633 14.6335 12.1717 14.9097 12.0181 15.1519C11.8646 15.3941 11.6539 15.5949 11.4046 15.7365C11.1448 15.8843 10.8509 15.9619 10.5519 15.9615C9.59169 15.9615 8.81348 15.1785 8.81348 14.2116C8.81348 13.2446 9.59169 12.4617 10.5519 12.4617C10.7337 12.4615 10.9143 12.4901 11.0871 12.5464L11.0896 10.448C10.565 10.3803 10.032 10.422 9.52429 10.5705C9.01658 10.719 8.54516 10.9711 8.13977 11.311C7.78455 11.6196 7.48592 11.9879 7.25731 12.3992C7.17031 12.5492 6.84208 13.1519 6.80233 14.1301C6.77733 14.6853 6.94408 15.2605 7.02357 15.4983V15.5033C7.07357 15.6433 7.26731 16.121 7.58304 16.5237C7.83764 16.8468 8.13844 17.1306 8.47575 17.3659V17.3609L8.48075 17.3659C9.47845 18.0439 10.5846 17.9994 10.5846 17.9994C10.7761 17.9917 11.4176 17.9994 12.1461 17.6542C12.954 17.2714 13.414 16.7012 13.414 16.7012C13.7079 16.3605 13.9415 15.9722 14.105 15.553C14.2915 15.0628 14.3537 14.4748 14.3537 14.2398V10.012C14.3787 10.027 14.7117 10.2473 14.7117 10.2473C14.7117 10.2473 15.1914 10.5548 15.9399 10.755C16.4768 10.8975 17.2003 10.9275 17.2003 10.9275V8.88161C16.9468 8.9091 16.4321 8.82911 15.9051 8.56637Z" fill="white"/>
</g>
<defs>
<clipPath id="clip0_901_2320">
<rect width="12" height="12" fill="white" transform="translate(6 6)"/>
</clipPath>
</defs>
</svg>
