<svg width="24" height="24" viewBox="0 0 24 24" fill="none" xmlns="http://www.w3.org/2000/svg">
<rect x="0.5" y="0.5" width="23" height="23" rx="11.5" stroke="white"/>
<path fill-rule="evenodd" clip-rule="evenodd" d="M17.3438 7.46046C17.9321 7.6193 18.3961 8.08649 18.5531 8.67982C18.8391 9.7559 18.8391 11.9999 18.8391 11.9999C18.8391 11.9999 18.8391 14.2448 18.5531 15.3201C18.3961 15.9134 17.9321 16.3806 17.3438 16.5394C16.2775 16.8275 12 16.8275 12 16.8275C12 16.8275 7.72324 16.8275 6.65619 16.5394C6.06787 16.3806 5.60391 15.9134 5.44692 15.3201C5.16092 14.244 5.16092 11.9999 5.16092 11.9999C5.16092 11.9999 5.16092 9.7559 5.44692 8.67982C5.60391 8.08649 6.06787 7.6193 6.65619 7.46046C7.72247 7.17236 12 7.17236 12 7.17236C12 7.17236 16.2775 7.17236 17.3438 7.46046ZM14.1762 12.0001L10.6013 14.0378V9.9624L14.1762 12.0001Z" fill="white"/>
</svg>
